<svg xmlns="http://www.w3.org/2000/svg" viewBox="0 0 500 500"><g id="freepik--background-simple--inject-2"><path d="M294.81,203.51c-69-17.41-91.2-163.79-194.9-82-73.57,58-31.34,195.89,60.06,178.28,55.33-10.65,46.83-11.52,93.15,14.1,46.93,26,98.87,38.53,150.25-9.64,26.59-24.93,37.84-84.83,12.89-115.33C385.06,150.72,337,214.15,294.81,203.51Z" style="fill:#63CE8D"></path><path d="M294.81,203.51c-69-17.41-91.2-163.79-194.9-82-73.57,58-31.34,195.89,60.06,178.28,55.33-10.65,46.83-11.52,93.15,14.1,46.93,26,98.87,38.53,150.25-9.64,26.59-24.93,37.84-84.83,12.89-115.33C385.06,150.72,337,214.15,294.81,203.51Z" style="fill:#fff;opacity:0.9"></path></g><g id="freepik--Device--inject-2"><path d="M344.38,412.66V416a.75.75,0,0,1-.75.75H250a4.89,4.89,0,0,1-4.53-6.71l29.68-73.49,47.95.33-1.64,9.54L310.87,408.1a3.27,3.27,0,0,0,3.22,3.82h29.54A.74.74,0,0,1,344.38,412.66Z" style="fill:#263238"></path><path d="M344.38,412.66V416a.75.75,0,0,1-.75.75H250a4.89,4.89,0,0,1-4.53-6.71l18.4-45.55,11.28-27.94,47.95.33-1.64,9.54-4.6,26.84-6,34.87a3.27,3.27,0,0,0,3.22,3.82h29.54A.74.74,0,0,1,344.38,412.66Z" style="fill:#fff;opacity:0.6000000000000001"></path><path d="M314.09,411.92H253.16a2.14,2.14,0,0,1-2-3l26-62.57h44.25L310.87,408.1A3.27,3.27,0,0,0,314.09,411.92Z" style="isolation:isolate;opacity:0.2"></path><polygon points="323.09 336.85 321.45 346.39 316.85 373.23 263.86 364.46 275.13 336.52 323.09 336.85" style="isolation:isolate;opacity:0.1"></polygon><path d="M416.33,199.86h-222a5.68,5.68,0,0,0-5.68,5.68V355.83a5.69,5.69,0,0,0,5.68,5.68h222a5.68,5.68,0,0,0,5.68-5.68V205.54A5.68,5.68,0,0,0,416.33,199.86Z" style="fill:#263238"></path><path d="M416.33,199.86h-222a5.68,5.68,0,0,0-5.68,5.68V355.83a5.69,5.69,0,0,0,5.68,5.68h222a5.68,5.68,0,0,0,5.68-5.68V205.54A5.68,5.68,0,0,0,416.33,199.86Z" style="fill:#fff;opacity:0.7000000000000001"></path><path d="M199,361.5h-4.71a5.67,5.67,0,0,1-5.67-5.67V205.54a5.67,5.67,0,0,1,5.67-5.68H199a5.68,5.68,0,0,0-5.68,5.68V355.83A5.67,5.67,0,0,0,199,361.5Z" style="isolation:isolate;opacity:0.2"></path><rect x="198.48" y="205.42" width="218.41" height="144.92" style="fill:#63CE8D"></rect><rect x="198.48" y="205.42" width="218.41" height="12.95" style="isolation:isolate;opacity:0.4"></rect><path d="M234.15,212.59H205.89a.91.91,0,0,1-.91-.91h0a.91.91,0,0,1,.91-.91h28.26a.91.91,0,0,1,.91.91h0A.91.91,0,0,1,234.15,212.59Z" style="fill:#fff"></path><path d="M318.61,212.59H302.42a.9.9,0,0,1-.9-.91h0a.9.9,0,0,1,.9-.91h16.19a.91.91,0,0,1,.91.91h0A.91.91,0,0,1,318.61,212.59Z" style="fill:#fff"></path><path d="M344.47,212.59H328.28a.91.91,0,0,1-.91-.91h0a.91.91,0,0,1,.91-.91h16.19a.91.91,0,0,1,.91.91h0A.91.91,0,0,1,344.47,212.59Z" style="fill:#fff"></path><path d="M370.33,212.59H354.14a.91.91,0,0,1-.91-.91h0a.91.91,0,0,1,.91-.91h16.19a.91.91,0,0,1,.91.91h0A.91.91,0,0,1,370.33,212.59Z" style="fill:#fff"></path><polygon points="405.6 211.08 408.61 214.1 411.62 211.08 405.6 211.08" style="fill:#fff"></polygon><path d="M375.59,205.42v13h25v-13Zm20.59,7.17H380a.91.91,0,0,1,0-1.82h16.19a.91.91,0,0,1,0,1.82Z" style="fill:#fff"></path><path d="M291,268.6H211a.91.91,0,0,1-.91-.91h0a.91.91,0,0,1,.91-.91h80a.91.91,0,0,1,.91.91h0A.91.91,0,0,1,291,268.6Z" style="fill:#fff"></path><path d="M291,273.83H211a.91.91,0,0,1-.91-.91h0a.9.9,0,0,1,.91-.9h80a.9.9,0,0,1,.91.9h0A.91.91,0,0,1,291,273.83Z" style="fill:#fff"></path><path d="M282.34,279.07H211a.91.91,0,0,1-.91-.91h0a.91.91,0,0,1,.91-.91h71.35a.91.91,0,0,1,.91.91h0A.91.91,0,0,1,282.34,279.07Z" style="fill:#fff"></path><path d="M291,284.3H211a.91.91,0,0,1-.91-.91h0a.91.91,0,0,1,.91-.91h80a.91.91,0,0,1,.91.91h0A.91.91,0,0,1,291,284.3Z" style="fill:#fff"></path><path d="M282.34,289.53H211a.91.91,0,0,1-.91-.91h0a.9.9,0,0,1,.91-.9h71.35a.9.9,0,0,1,.91.9h0A.91.91,0,0,1,282.34,289.53Z" style="fill:#fff"></path><path d="M247.87,294.77H211a.91.91,0,0,1-.91-.91h0A.91.91,0,0,1,211,293h36.88a.9.9,0,0,1,.9.91h0A.9.9,0,0,1,247.87,294.77Z" style="fill:#fff"></path><path d="M272.21,249.77H212a1.94,1.94,0,0,1-1.94-1.94h0A1.93,1.93,0,0,1,212,245.9h60.19a1.92,1.92,0,0,1,1.93,1.93h0A1.93,1.93,0,0,1,272.21,249.77Z" style="fill:#fff"></path><path d="M298.06,257.7H212a1.94,1.94,0,0,1-1.94-1.94h0a1.93,1.93,0,0,1,1.94-1.93h86a1.93,1.93,0,0,1,1.94,1.93h0A1.94,1.94,0,0,1,298.06,257.7Z" style="fill:#fff"></path><rect x="210.08" y="303.47" width="40.89" height="9.95" rx="2.36" style="isolation:isolate;opacity:0.4"></rect><polygon points="243.41 306.33 243.41 310.56 247.99 308.44 243.41 306.33" style="fill:#fff"></polygon><path d="M334.48,248.7c17.26.38,12.56,35-9,32.86S316,248.3,334.48,248.7Z" style="isolation:isolate;opacity:0.2"></path><path d="M353.73,268.76c.25-.4.53-.8.83-1.2,6.09-8.18,23.4-11.45,32.41-7.19,14.15,6.7,19.89,23.85,14.29,39.89a37.36,37.36,0,0,1-14,18.15A56.5,56.5,0,0,1,349.75,329c-9.28-.86-17.19-2.71-23.12-7a14.94,14.94,0,0,1-5.34-6.81,15.73,15.73,0,0,1,.75-11.78c1.72-3.52,4.86-5.75,7.95-7.43,4.21-2.3,8.71-4.57,12.82-8.48a35.66,35.66,0,0,0,8.06-12.51A40.22,40.22,0,0,1,353.73,268.76Z" style="isolation:isolate;opacity:0.2"></path><path d="M357.61,305.79c-.8,3-5.63,4.4-10.78,3s-8.66-4.93-7.85-8,5.63-4.4,10.77-3S358.42,302.75,357.61,305.79Z" style="fill:#263238"></path><path d="M364.31,296.77a2.77,2.77,0,0,0,1.32-1.6c.79-3-4.91-7.09-12.75-9.16s-14.82-1.34-15.61,1.65a2.73,2.73,0,0,0,.36,2,2.27,2.27,0,0,0-.5.89,2.76,2.76,0,0,0,.38,2,2.18,2.18,0,0,0-.51.91,2.62,2.62,0,0,0,.4,2,2.12,2.12,0,0,0-.54.92,2.55,2.55,0,0,0,.44,2,2,2,0,0,0-.57.93c-.66,2.48,4.08,5.89,10.59,7.62s12.33,1.11,13-1.37a2,2,0,0,0,0-1.09,2.57,2.57,0,0,0,1.37-1.52,2.05,2.05,0,0,0,0-1.07A2.63,2.63,0,0,0,363,300.4a2.19,2.19,0,0,0,0-1,2.68,2.68,0,0,0,1.33-1.57A2.15,2.15,0,0,0,364.31,296.77Z" style="fill:#263238"></path><path d="M364.31,296.77a2.77,2.77,0,0,0,1.32-1.6c.79-3-4.91-7.09-12.75-9.16s-14.82-1.34-15.61,1.65a2.73,2.73,0,0,0,.36,2,2.27,2.27,0,0,0-.5.89,2.76,2.76,0,0,0,.38,2,2.18,2.18,0,0,0-.51.91,2.62,2.62,0,0,0,.4,2,2.12,2.12,0,0,0-.54.92,2.55,2.55,0,0,0,.44,2,2,2,0,0,0-.57.93c-.66,2.48,4.08,5.89,10.59,7.62s12.33,1.11,13-1.37a2,2,0,0,0,0-1.09,2.57,2.57,0,0,0,1.37-1.52,2.05,2.05,0,0,0,0-1.07A2.63,2.63,0,0,0,363,300.4a2.19,2.19,0,0,0,0-1,2.68,2.68,0,0,0,1.33-1.57A2.15,2.15,0,0,0,364.31,296.77Z" style="fill:#fff;opacity:0.30000000000000004"></path><path d="M383.09,273.38a26,26,0,1,0-46.15,8.53,4.28,4.28,0,0,1,.58,4,1.18,1.18,0,0,0-.07.2c-.8,3,5,7.19,12.95,9.3s15.05,1.36,15.86-1.67c0-.07,0-.13,0-.2a4.3,4.3,0,0,1,2.5-3.18A25.89,25.89,0,0,0,383.09,273.38Z" style="fill:#63CE8D"></path><path d="M383.09,273.38a26,26,0,1,0-46.15,8.53,4.28,4.28,0,0,1,.58,4,1.18,1.18,0,0,0-.07.2c-.8,3,5,7.19,12.95,9.3s15.05,1.36,15.86-1.67c0-.07,0-.13,0-.2a4.3,4.3,0,0,1,2.5-3.18A25.89,25.89,0,0,0,383.09,273.38Z" style="fill:#fff;opacity:0.7000000000000001"></path><path d="M355.93,292.45l-.12,0a.31.31,0,0,1-.16-.41c.2-.47,4.71-11,11.56-13.73l-3.73-1a.31.31,0,0,1-.23-.25l-.47-3.27-4.39,5.16a.32.32,0,0,1-.32.1.31.31,0,0,1-.23-.25l-1.28-6.73-4.21,4.47a.3.3,0,0,1-.31.08.29.29,0,0,1-.22-.22l-1.45-5.94-2.05,2.64a.32.32,0,0,1-.33.11l-4-1.06c1.2,2.22,4.78,9.8,2.73,17.55a.32.32,0,0,1-.61-.16c2.37-8.92-3-17.63-3-17.72a.32.32,0,0,1,0-.35.31.31,0,0,1,.33-.12l4.52,1.2,2.33-3a.32.32,0,0,1,.31-.11.33.33,0,0,1,.24.23l1.46,6,4.24-4.5a.32.32,0,0,1,.31-.08.3.3,0,0,1,.22.24l1.27,6.7,4.42-5.19a.34.34,0,0,1,.33-.1.33.33,0,0,1,.22.26l.54,3.74,4.52,1.2a.32.32,0,0,1,.24.3.31.31,0,0,1-.23.3c-7.11,2-12.1,13.59-12.15,13.71A.3.3,0,0,1,355.93,292.45Z" style="fill:#263238"></path><path d="M369.85,250.71c1.13,5.59-4.44,11.45-12.45,13.08s-15.43-1.59-16.57-7.18,4.44-11.45,12.45-13.08S368.71,245.12,369.85,250.71Z" style="fill:#fff;opacity:0.4"></path><path d="M363.55,268.56c.46,2.25-1.78,4.6-5,5.25s-6.19-.63-6.65-2.88,1.78-4.6,5-5.25S363.1,266.32,363.55,268.56Z" style="fill:#fff;opacity:0.4"></path><path d="M221.25,350.34C251.44,331,329,288.1,416.89,291.27v59.07Z" style="fill:#fff;opacity:0.1"></path><path d="M198.48,294.73V205.42H364.89c-6.38,18-19.14,42.74-43.88,60.4C276.49,297.58,224.83,297.48,198.48,294.73Z" style="fill:#fff;opacity:0.1"></path></g><g id="freepik--Screen--inject-2"><path d="M155.61,155.51v129a2.2,2.2,0,0,1-2.23,2.19H74.07a2,2,0,0,1-2-2V155.34a1.77,1.77,0,0,1,1.7-1.85H93.62a1.4,1.4,0,0,1,1.27.9l.83,2a1.37,1.37,0,0,0,1.27.88h33.75a1.39,1.39,0,0,0,1.28-.87l.82-2a1.4,1.4,0,0,1,1.28-.9h19.54A2,2,0,0,1,155.61,155.51Z" style="fill:#63CE8D"></path><path d="M151.28,153.49c-7.39,20.47-31.43,76.69-79.2,99.62V155.34a1.78,1.78,0,0,1,1.71-1.85H93.61a1.39,1.39,0,0,1,1.28.9l.82,2a1.39,1.39,0,0,0,1.28.89h33.75a1.39,1.39,0,0,0,1.28-.87l.82-2a1.4,1.4,0,0,1,1.28-.9Z" style="fill:#fff;opacity:0.1"></path><path d="M155.61,227v57.47a2.2,2.2,0,0,1-2.23,2.2H74.07a2,2,0,0,1-2-2V270C94.15,241,132.07,230.7,155.61,227Z" style="fill:#fff;opacity:0.1"></path><rect x="81.29" y="158.16" width="1.03" height="1.38" transform="translate(163.61 317.7) rotate(180)" style="fill:#fff;isolation:isolate;opacity:0.6000000000000001"></rect><rect x="79.61" y="157.7" width="1.03" height="1.83" transform="translate(160.25 317.24) rotate(180)" style="fill:#fff;isolation:isolate;opacity:0.6000000000000001"></rect><rect x="77.93" y="157.24" width="1.03" height="2.29" transform="translate(156.89 316.78) rotate(180)" style="fill:#fff;isolation:isolate;opacity:0.6000000000000001"></rect><rect x="76.25" y="156.79" width="1.03" height="2.75" transform="translate(153.52 316.32) rotate(180)" style="fill:#fff;isolation:isolate;opacity:0.6000000000000001"></rect><rect x="145.54" y="157.66" width="0.61" height="1.38" style="fill:#fff;isolation:isolate;opacity:0.6000000000000001"></rect><rect x="146.57" y="157.16" width="4.87" height="2.38" transform="translate(298.02 316.69) rotate(180)" style="fill:#fff;isolation:isolate;opacity:0.6000000000000001"></rect><path d="M139.62,252.67H88.08a.58.58,0,0,1-.59-.59h0a.58.58,0,0,1,.59-.58h51.54a.58.58,0,0,1,.58.58h0A.58.58,0,0,1,139.62,252.67Z" style="fill:#fff"></path><path d="M139.62,256H88.08a.58.58,0,0,1-.59-.58h0a.58.58,0,0,1,.59-.59h51.54a.58.58,0,0,1,.58.59h0A.58.58,0,0,1,139.62,256Z" style="fill:#fff"></path><path d="M136.84,259.41h-46a.58.58,0,0,1-.58-.58h0a.59.59,0,0,1,.58-.59h46a.59.59,0,0,1,.58.59h0A.58.58,0,0,1,136.84,259.41Z" style="fill:#fff"></path><path d="M139.62,262.79H88.08a.59.59,0,0,1-.59-.59h0a.58.58,0,0,1,.59-.58h51.54a.58.58,0,0,1,.58.58h0A.59.59,0,0,1,139.62,262.79Z" style="fill:#fff"></path><path d="M136.84,266.16h-46a.58.58,0,0,1-.58-.59h0a.58.58,0,0,1,.58-.58h46a.58.58,0,0,1,.58.58h0A.58.58,0,0,1,136.84,266.16Z" style="fill:#fff"></path><path d="M125.73,269.53H102a.58.58,0,0,1-.58-.58h0a.58.58,0,0,1,.58-.59h23.77a.59.59,0,0,1,.59.59h0A.59.59,0,0,1,125.73,269.53Z" style="fill:#fff"></path><path d="M133.24,181.41H94.45a1.25,1.25,0,0,1-1.25-1.25h0a1.25,1.25,0,0,1,1.25-1.24h38.79a1.25,1.25,0,0,1,1.25,1.24h0A1.25,1.25,0,0,1,133.24,181.41Z" style="fill:#fff"></path><path d="M141.58,186.52H86.12a1.25,1.25,0,0,1-1.25-1.24h0A1.25,1.25,0,0,1,86.12,184h55.46a1.25,1.25,0,0,1,1.24,1.25h0A1.25,1.25,0,0,1,141.58,186.52Z" style="fill:#fff"></path><rect x="100.67" y="273.14" width="26.36" height="6.41" rx="1.52" style="isolation:isolate;opacity:0.4"></rect><polygon points="122.15 274.99 122.15 277.71 125.1 276.35 122.15 274.99" style="fill:#fff"></polygon><path d="M98.25,195.89c11.12.24,8.09,22.54-5.8,21.17S86.32,195.63,98.25,195.89Z" style="isolation:isolate;opacity:0.2"></path><path d="M110.66,208.82c.16-.26.34-.52.53-.78,3.93-5.27,15.09-7.38,20.89-4.63,9.12,4.32,12.82,15.37,9.21,25.71a24,24,0,0,1-9,11.69,36.35,36.35,0,0,1-24.16,6.82c-6-.56-11.08-1.75-14.9-4.54a9.64,9.64,0,0,1-3.44-4.39,10.14,10.14,0,0,1,.48-7.59,11.44,11.44,0,0,1,5.13-4.79,36.45,36.45,0,0,0,8.26-5.47,22.88,22.88,0,0,0,5.19-8.06A25.36,25.36,0,0,1,110.66,208.82Z" style="isolation:isolate;opacity:0.2"></path><path d="M113.16,232.68c-.52,2-3.63,2.84-7,2s-5.58-3.18-5.06-5.14,3.63-2.84,6.94-2S113.68,230.72,113.16,232.68Z" style="fill:#263238"></path><path d="M117.48,226.87a1.82,1.82,0,0,0,.85-1c.51-1.92-3.17-4.57-8.22-5.91s-9.55-.86-10.06,1.06a1.78,1.78,0,0,0,.23,1.32,1.47,1.47,0,0,0-.32.57,1.74,1.74,0,0,0,.24,1.3,1.45,1.45,0,0,0-.33.59,1.74,1.74,0,0,0,.26,1.29,1.32,1.32,0,0,0-.34.59,1.64,1.64,0,0,0,.28,1.3,1.28,1.28,0,0,0-.37.59c-.43,1.6,2.63,3.8,6.83,4.91s7.94.72,8.36-.88a1.29,1.29,0,0,0,0-.7,1.63,1.63,0,0,0,.88-1,1.35,1.35,0,0,0,0-.69,1.68,1.68,0,0,0,.87-1,1.27,1.27,0,0,0,0-.67,1.74,1.74,0,0,0,.86-1A1.43,1.43,0,0,0,117.48,226.87Z" style="fill:#263238"></path><path d="M117.48,226.87a1.82,1.82,0,0,0,.85-1c.51-1.92-3.17-4.57-8.22-5.91s-9.55-.86-10.06,1.06a1.78,1.78,0,0,0,.23,1.32,1.47,1.47,0,0,0-.32.57,1.74,1.74,0,0,0,.24,1.3,1.45,1.45,0,0,0-.33.59,1.74,1.74,0,0,0,.26,1.29,1.32,1.32,0,0,0-.34.59,1.64,1.64,0,0,0,.28,1.3,1.28,1.28,0,0,0-.37.59c-.43,1.6,2.63,3.8,6.83,4.91s7.94.72,8.36-.88a1.29,1.29,0,0,0,0-.7,1.63,1.63,0,0,0,.88-1,1.35,1.35,0,0,0,0-.69,1.68,1.68,0,0,0,.87-1,1.27,1.27,0,0,0,0-.67,1.74,1.74,0,0,0,.86-1A1.43,1.43,0,0,0,117.48,226.87Z" style="fill:#fff;opacity:0.30000000000000004"></path><path d="M129.58,211.79a16.73,16.73,0,1,0-29.74,5.5,2.76,2.76,0,0,1,.37,2.56.5.5,0,0,0,0,.13c-.52,2,3.21,4.63,8.34,6s9.7.88,10.22-1.07l0-.13a2.75,2.75,0,0,1,1.61-2.05A16.71,16.71,0,0,0,129.58,211.79Z" style="fill:#63CE8D"></path><path d="M129.58,211.79a16.73,16.73,0,1,0-29.74,5.5,2.76,2.76,0,0,1,.37,2.56.5.5,0,0,0,0,.13c-.52,2,3.21,4.63,8.34,6s9.7.88,10.22-1.07l0-.13a2.75,2.75,0,0,1,1.61-2.05A16.71,16.71,0,0,0,129.58,211.79Z" style="fill:#fff;opacity:0.7000000000000001"></path><path d="M112.08,224.08H112a.21.21,0,0,1-.11-.27c.13-.3,3-7.08,7.45-8.84l-2.4-.64a.2.2,0,0,1-.15-.16l-.3-2.11-2.83,3.33a.2.2,0,0,1-.21.06.19.19,0,0,1-.14-.16l-.83-4.34-2.72,2.88a.2.2,0,0,1-.19.06.23.23,0,0,1-.15-.15l-.93-3.83-1.32,1.7a.2.2,0,0,1-.21.08l-2.58-.69c.77,1.44,3.07,6.32,1.75,11.32a.2.2,0,1,1-.39-.11c1.53-5.75-1.91-11.36-1.95-11.42a.2.2,0,0,1,0-.22.21.21,0,0,1,.22-.08l2.91.77,1.5-1.92a.23.23,0,0,1,.2-.08.22.22,0,0,1,.16.15l.94,3.88,2.73-2.9a.19.19,0,0,1,.2-.06.2.2,0,0,1,.15.16l.81,4.32,2.85-3.35a.21.21,0,0,1,.21-.06.18.18,0,0,1,.14.16l.35,2.42,2.92.77a.19.19,0,0,1,.15.19.21.21,0,0,1-.15.2c-4.58,1.26-7.8,8.76-7.83,8.83A.18.18,0,0,1,112.08,224.08Z" style="fill:#263238"></path><path d="M121,197.18c.74,3.61-2.86,7.38-8,8.43s-9.94-1-10.68-4.63,2.86-7.37,8-8.42S120.31,193.58,121,197.18Z" style="fill:#fff;opacity:0.4"></path><path d="M117,208.69c.29,1.45-1.15,3-3.22,3.38s-4-.41-4.29-1.86,1.15-3,3.22-3.38S116.69,207.24,117,208.69Z" style="fill:#fff;opacity:0.4"></path><path d="M155.61,155.51V173.2H72.08V155.34a1.77,1.77,0,0,1,1.7-1.85H93.62a1.4,1.4,0,0,1,1.27.9l.83,2a1.37,1.37,0,0,0,1.27.88h33.75a1.39,1.39,0,0,0,1.28-.87l.82-2a1.4,1.4,0,0,1,1.28-.9h19.54A2,2,0,0,1,155.61,155.51Z" style="isolation:isolate;opacity:0.4"></path><path d="M94.06,167.2H75.85a.59.59,0,0,1-.59-.59h0a.59.59,0,0,1,.59-.58H94.06a.59.59,0,0,1,.59.58h0A.59.59,0,0,1,94.06,167.2Z" style="fill:#fff"></path><path d="M151.4,165H146a.42.42,0,0,1-.42-.42h0a.42.42,0,0,1,.42-.42h5.44a.42.42,0,0,1,.43.42h0A.42.42,0,0,1,151.4,165Z" style="fill:#fff"></path><path d="M151.4,167H146a.42.42,0,0,1-.42-.42h0a.42.42,0,0,1,.42-.42h5.44a.42.42,0,0,1,.43.42h0A.42.42,0,0,1,151.4,167Z" style="fill:#fff"></path><path d="M151.4,169.09H146a.42.42,0,0,1-.42-.43h0a.42.42,0,0,1,.42-.42h5.44a.42.42,0,0,1,.43.42h0A.43.43,0,0,1,151.4,169.09Z" style="fill:#fff"></path></g><g id="freepik--Arrow--inject-2"><rect x="235.57" y="332.52" width="5.14" height="8" style="fill:#63CE8D"></rect><path d="M235.18,332.52H137.32a19.49,19.49,0,0,1-19.47-19.47V289.83H120l-6.1-8.23-6.1,8.23h2.1v23.22a27.5,27.5,0,0,0,27.47,27.47h97.86Z" style="fill:#63CE8D"></path><rect x="242.16" y="332.52" width="2.9" height="8" style="fill:#63CE8D"></rect><rect x="247.84" y="332.52" width="0.94" height="8" style="fill:#63CE8D"></rect><g style="opacity:0.7000000000000001"><rect x="235.57" y="332.52" width="5.14" height="8" style="fill:#fff"></rect><path d="M235.18,332.52H137.32a19.49,19.49,0,0,1-19.47-19.47V289.83H120l-6.1-8.23-6.1,8.23h2.1v23.22a27.5,27.5,0,0,0,27.47,27.47h97.86Z" style="fill:#fff"></path><rect x="242.16" y="332.52" width="2.9" height="8" style="fill:#fff"></rect><rect x="247.84" y="332.52" width="0.94" height="8" style="fill:#fff"></rect></g></g><g id="freepik--Character--inject-2"><path d="M198.72,218.13l1.17,3.47,1.25,3.53c.85,2.36,1.72,4.7,2.61,7l1.38,3.49.71,1.74a11.82,11.82,0,0,1,.51,1.41c.12.38.27.68.33.89a.55.55,0,0,1,0,.44c-.05.11,0,.31.26.39a1.43,1.43,0,0,0,.49.06l.29,0c.08,0,.23,0,.23,0a2.2,2.2,0,1,1,3.05,3.16c-.23.3-.34.44-.51.63a6.14,6.14,0,0,1-.51.51,6.26,6.26,0,0,1-1.26.88,5.9,5.9,0,0,1-3.53.61,7.11,7.11,0,0,1-3.33-1.42,10.59,10.59,0,0,1-2.08-2.11,12.87,12.87,0,0,1-1.24-2l-.92-1.75c-.6-1.18-1.15-2.37-1.72-3.57-1.11-2.39-2.15-4.81-3.1-7.27-.48-1.23-.92-2.47-1.35-3.72s-.85-2.48-1.23-3.85a4.44,4.44,0,0,1,8.47-2.63Z" style="fill:#ce7a63"></path><path d="M192.08,212.07c6,.46,8.91,4.81,11.75,14.75-2.14,3.36-10.73,5.87-10.73,5.87S187.48,218,192.08,212.07Z" style="fill:#63CE8D"></path><path d="M192.08,212.07c6,.46,8.91,4.81,11.75,14.75-2.14,3.36-10.73,5.87-10.73,5.87S187.48,218,192.08,212.07Z" style="fill:#fff;opacity:0.7000000000000001"></path><path d="M169.83,396.83l4.16,2.45a78.11,78.11,0,0,1,6.32-7.49h0c1.2-1.28,2.47-2.69,3.79-4.21,2.63-3,5.48-6.47,8.47-10.18l2.68-3.35c10.41-13.1,21.67-28.5,25.88-38.91,1.31-3.24,2-6,1.66-8.05-.85-6.21-3.27-15.58-6-24.62-4.2-13.82-8.93-26.92-8.93-26.92l-11.61,19.68s3.56,8.5,6.81,17.55c3.19,8.89,6.08,18.32,5,20.77-.1.24-.23.53-.38.83-1.93,4-7.27,13.05-13.33,23.05l-1.85,3c-3.26,5.34-6.64,10.83-9.78,15.87-1.22,2-2.41,3.89-3.54,5.7C173.82,390.61,169.83,396.83,169.83,396.83Z" style="fill:#e4897b"></path><path d="M195.49,374c-5.5,6.9-10.78,13.17-14.7,17.74-.56-2.81-1.13-6.14-1.58-9.76,4.54-7.29,10.09-16.28,15.14-24.6A95.33,95.33,0,0,0,195.49,374Z" style="isolation:isolate;opacity:0.2"></path><path d="M174.75,317.09c1.44,9.81,3.49,18.7,4.83,24,.8,3.17,1.34,5.05,1.34,5.05a264.92,264.92,0,0,0,1.77,30.18c.44,3.94.92,7.73,1.41,11.25,1.81,13,3.71,22.4,3.71,22.4l4.95-.64-.19-31.94-.1-16.94-.14-23-.05-4L192,315.89l-.36-25.84-17.22-7.75C172.15,292.12,173,305.28,174.75,317.09Z" style="fill:#e4897b"></path><path d="M220.84,317.25c-4.4,3-10.34,4.87-14.4,5.85-.94-3.21-2.16-6.82-3.42-10.33-3.25-9-6.81-17.55-6.81-17.55l11.61-19.68s4.73,13.1,8.93,26.92C218.29,307.49,219.72,312.62,220.84,317.25Z" style="isolation:isolate;opacity:0.2"></path><path d="M192.18,326.73a158.8,158.8,0,0,1-16-1.16c-.5-2.69-1-5.54-1.42-8.48-1.74-11.81-2.6-25-.29-34.79l17.22,7.75.36,25.84Z" style="isolation:isolate;opacity:0.2"></path><path d="M221.68,315.54c-10.78,6.33-42.47,9-42.47,9L174,310l.56,14.41h-1.53s-11.58-39.18,3.8-64.86l27.56-2.13,3,14.19S215.2,292,221.68,315.54Z" style="fill:#263238"></path><path d="M201.47,416.32a7.82,7.82,0,0,0-2.64-1h0s-3-2.26-5.46-10.05l-3.62-.41a3,3,0,0,0-3,1.69,1.66,1.66,0,0,0-.16.49,19.38,19.38,0,0,0,0,2.64,72.49,72.49,0,0,0,1.19,8.76l.63-.09-.53-5.53c-.17-1.88,1.57.1,2.26,2.05s1.86,4,6,3.49C200.89,417.79,202.84,417.32,201.47,416.32Z" style="fill:#2e353a"></path><path d="M192.37,402.52s1.29,3.52,3,7.4a16.79,16.79,0,0,0,3.45,5.41s-3,1-4.61-.9-4.37-8.65-7.47-7.87a6.89,6.89,0,0,1,.69-1.58C187.9,404.21,192.37,402.52,192.37,402.52Z" style="fill:#e4897b"></path><path d="M171.13,413.26a7.75,7.75,0,0,0-1-2.63h0s-.31-3.79,3.92-10.75l-2.09-3a3,3,0,0,0-3.26-1.13,1.82,1.82,0,0,0-.47.21,19.35,19.35,0,0,0-2,1.75,71.85,71.85,0,0,0-5.77,6.69l.48.42,3.79-4.06c1.3-1.38,1,1.24,0,3.05s-1.73,4,1.35,6.78C169.64,413.79,171.29,415,171.13,413.26Z" style="fill:#2e353a"></path><path d="M175.43,397.3s-1.78,3.3-3.54,7.16a17,17,0,0,0-1.78,6.17s-2.71-1.6-2.37-4.05,3.58-9,.94-10.82a7.42,7.42,0,0,1,1.64-.52C171.2,395.07,175.43,397.3,175.43,397.3Z" style="fill:#e4897b"></path><polygon points="176.62 256.72 176.46 260.88 204.94 259.77 205.13 254.85 176.62 256.72" style="fill:#263238"></polygon><polygon points="176.62 256.72 176.46 260.88 204.94 259.77 205.13 254.85 176.62 256.72" style="fill:#fff;isolation:isolate;opacity:0.2"></polygon><rect x="184.85" y="255.34" width="1.41" height="7.19" transform="translate(-3.43 2.49) rotate(-0.76)" style="fill:#263238"></rect><rect x="192.39" y="255.5" width="6.24" height="4.73" transform="translate(-13.04 10.43) rotate(-2.96)" style="fill:#fff"></rect><rect x="202.27" y="254.09" width="1.41" height="7.19" transform="translate(-3.41 2.73) rotate(-0.76)" style="fill:#263238"></rect><path d="M201.22,222.08a90.17,90.17,0,0,1,1.91,11.79c.69,5.78,2,12.36,2.68,21.91l-30,1.63c-.71-8.24-2.91-15.29-11-32.8a6.82,6.82,0,0,1,4.38-9.67c1.12-.3,2.32-.59,3.56-.85A93.18,93.18,0,0,1,185.92,212c1.45-.09,3-.15,4.4-.18C195.53,211.73,200.25,217,201.22,222.08Z" style="fill:#63CE8D"></path><path d="M164.85,224.61c1.21,2.63,2.3,5,3.26,7.22,2.2,5,3.78,9,4.93,12.44a53.25,53.25,0,0,1,2.81,13.14l30-1.63c-.66-9.55-2-16.14-2.68-21.91a86.73,86.73,0,0,0-1.91-11.79c-1-5.07-5.68-10.35-10.9-10.25-1.44,0-2.95.09-4.4.18a93.18,93.18,0,0,0-13.13,2.08c-1.24.26-2.44.55-3.56.84A6.83,6.83,0,0,0,164.85,224.61Z" style="fill:#fff;opacity:0.7000000000000001"></path><path d="M168.11,231.83c2.2,5,3.78,9,4.93,12.44,9.1-6.47,2.43-15.15,2.43-15.15A11.53,11.53,0,0,0,168.11,231.83Z" style="opacity:0.2"></path><path d="M173,227.78c.46,1.62,1,3.49,1.61,5.22s1.23,3.5,1.91,5.21,1.44,3.36,2.23,5a48.65,48.65,0,0,0,2.65,4.59l-.58-.62a.93.93,0,0,0-.62-.26.87.87,0,0,0,.41,0,8.64,8.64,0,0,0,2.13-.48,36.65,36.65,0,0,0,5.13-2.3c1.74-.91,3.48-1.92,5.21-3s3.48-2.13,5.17-3.2l.05,0a2.21,2.21,0,0,1,2.78,3.39c-1.49,1.58-3,3-4.63,4.43s-3.29,2.76-5.06,4a37.75,37.75,0,0,1-5.85,3.51,16.45,16.45,0,0,1-3.82,1.26,8.33,8.33,0,0,1-2.69.09,6.73,6.73,0,0,1-3.44-1.47,2.92,2.92,0,0,1-.46-.47l-.12-.15a45.63,45.63,0,0,1-3.68-5.33,58.2,58.2,0,0,1-2.89-5.6c-.86-1.9-1.62-3.83-2.3-5.79-.33-1-.65-2-.94-2.95s-.56-2-.83-3.1a4.43,4.43,0,0,1,8.58-2.22Z" style="fill:#ce7a63"></path><path d="M214.7,238.86l-.3,1.88a2.22,2.22,0,0,1-1.2,1.64l-3,1.5a4.09,4.09,0,0,1-3.79-.06l-.74-.39c.29-3.16,2.92-6.37,2.92-6.37l.65-1a1.86,1.86,0,0,1,2.56-.61l2,1.27A2.12,2.12,0,0,1,214.7,238.86Z" style="fill:#ce7a63"></path><path d="M202.79,243.82h6.89a1.54,1.54,0,0,0,1.44-1.18l3.19-14.93a.92.92,0,0,0-.93-1.17h-6.89a1.53,1.53,0,0,0-1.43,1.17l-3.2,14.93A.93.93,0,0,0,202.79,243.82Z" style="fill:#263238"></path><path d="M176.2,210.71a5.38,5.38,0,0,1-1.21,2.41s4-.67,12.73,4.5c2.43-3.6.56-4.71.56-4.71-4-.86-4.83-3.37-4.73-6.06a14.81,14.81,0,0,1,.19-1.87l-6.1-4.74L175,198.15c.19.65.38,1.39.57,2.17C176.3,203.6,176.92,207.79,176.2,210.71Z" style="fill:#ce7a63"></path><path d="M194,186.34s5.87-6.13,11.78-3.48-.31,12.17-2.62,17.32,2.59,6.88,2.62,10-4.06,4-4.06,4,3.41-1.65,2.08-3.49-7.61-1.16-5.56-9.28.25-11.28-2.83-9.3S194,186.34,194,186.34Z" style="fill:#263238"></path><path d="M185.89,216.59c-2.82.44-3.64,4.74-3.64,4.74s-6.88-4.71-9.09-8.06a29.25,29.25,0,0,0,2.46-1.62S184.21,215,185.89,216.59Z" style="fill:#63CE8D"></path><path d="M188.58,216.09s2.46.62,3.4,4c.54-6.24-2.39-7.26-2.39-7.26a3.6,3.6,0,0,0-2.56-.33A3.05,3.05,0,0,1,188.58,216.09Z" style="fill:#63CE8D"></path><path d="M185.89,216.59c-2.82.44-3.64,4.74-3.64,4.74s-6.88-4.71-9.09-8.06a29.25,29.25,0,0,0,2.46-1.62S184.21,215,185.89,216.59Z" style="fill:#fff;opacity:0.5"></path><path d="M188.58,216.09s2.46.62,3.4,4c.54-6.24-2.39-7.26-2.39-7.26a3.6,3.6,0,0,0-2.56-.33A3.05,3.05,0,0,1,188.58,216.09Z" style="fill:#fff;opacity:0.5"></path><path d="M167,216c-4.93,3.48-5.17,8.7-2.5,18.69,3.56,1.79,12.22-.48,12.22-.48S174,218.68,167,216Z" style="fill:#63CE8D"></path><path d="M167,216c-4.93,3.48-5.17,8.7-2.5,18.69,3.56,1.79,12.22-.48,12.22-.48S174,218.68,167,216Z" style="fill:#fff;opacity:0.7000000000000001"></path><path d="M176.2,210.71a15.79,15.79,0,0,0,7.35-3.86,14.81,14.81,0,0,1,.19-1.87l-6.1-4.74a20.67,20.67,0,0,0-2.12.08C176.3,203.6,176.92,207.79,176.2,210.71Z" style="opacity:0.2"></path><path d="M189,179.92s-2.15-4.09-10.5-1.9-12.43,13.69-6.85,17.86,10,3.11,10,3.11l4.23,4.9s4,1.87,8.5-4.45S198.82,179.85,189,179.92Z" style="fill:#263238"></path><path d="M190.89,193.53c-2.26,6.65-3.07,9.51-7.43,12.24-6.57,4.1-14.26.35-14.05-6.73.19-6.37,3.84-16.18,11.21-17.45A9,9,0,0,1,190.89,193.53Z" style="fill:#ce7a63"></path><path d="M182,193.43c-.16.57-.59,1-1,.89s-.53-.61-.37-1.18.6-1,1-.88S182.16,192.87,182,193.43Z" style="fill:#263238"></path><path d="M174.9,191.66c-.16.57-.59,1-1,.88s-.53-.6-.37-1.17.6-1,1-.88S175.07,191.1,174.9,191.66Z" style="fill:#263238"></path><path d="M174.69,190.56l-1.23-.69S173.84,191.09,174.69,190.56Z" style="fill:#263238"></path><path d="M176.72,193.38a17.26,17.26,0,0,1-3.05,3.19,2.37,2.37,0,0,0,1.89.81Z" style="fill:#ba4d3c"></path><path d="M178.17,200.17a4.75,4.75,0,0,1-1-.12.16.16,0,0,1-.12-.2.19.19,0,0,1,.21-.13,4.89,4.89,0,0,0,4.14-1,.16.16,0,1,1,.22.24A5.13,5.13,0,0,1,178.17,200.17Z" style="fill:#263238"></path><path d="M184.08,190.11a.3.3,0,0,1-.22-.14,2.53,2.53,0,0,0-2.1-1.16.32.32,0,0,1-.34-.32.38.38,0,0,1,.35-.36,3.17,3.17,0,0,1,2.67,1.44.36.36,0,0,1-.11.48A.39.39,0,0,1,184.08,190.11Z" style="fill:#263238"></path><path d="M173.06,187.3a.33.33,0,0,1-.23-.1.34.34,0,0,1,0-.48,3.61,3.61,0,0,1,3-1.09.32.32,0,0,1,.25.4.38.38,0,0,1-.42.27,2.9,2.9,0,0,0-2.38.89A.41.41,0,0,1,173.06,187.3Z" style="fill:#263238"></path><path d="M181.78,192.33l-1.23-.69S180.93,192.86,181.78,192.33Z" style="fill:#263238"></path><path d="M182.45,182.52s-1.95,10.25,5,14.86,9.5-11.25,4-15.94-17-3.19-19.79,3.49C171.62,184.93,174.62,181.36,182.45,182.52Z" style="fill:#263238"></path><path d="M191.62,199.57a5.64,5.64,0,0,1-3.92,1.78c-1.91,0-2.25-1.94-1.21-3.6.95-1.49,3.07-3.3,4.74-2.53S192.92,198.19,191.62,199.57Z" style="fill:#ce7a63"></path><path d="M202.79,243.82h6.89a1.54,1.54,0,0,0,1.44-1.18l3.19-14.93a.92.92,0,0,0-.93-1.17h-6.89a1.53,1.53,0,0,0-1.43,1.17l-3.2,14.93A.93.93,0,0,0,202.79,243.82Z" style="fill:#fff;opacity:0.5"></path><path d="M205.07,235l-2.13-.48a2.53,2.53,0,0,0-2.25.59l-2.85,2.57a4.74,4.74,0,0,0-1.54,4.07l.11.94c3.48,1,8-.43,8-.43l1.34-.27a2.1,2.1,0,0,0,1.71-2.47l-.5-2.65A2.42,2.42,0,0,0,205.07,235Z" style="fill:#ce7a63"></path></g></svg>
